<?xml version="1.0" encoding="UTF-8" standalone="no"?>
<svg width="20px" height="19px" viewBox="0 0 20 19" version="1.1" xmlns="http://www.w3.org/2000/svg" xmlns:xlink="http://www.w3.org/1999/xlink">
    <!-- Generator: sketchtool 47.1 (45422) - http://www.bohemiancoding.com/sketch -->
    <title>3BA90875-970A-4233-8E9B-ED31F246AC7D</title>
    <desc>Created with sketchtool.</desc>
    <defs></defs>
    <g id="Page-1" stroke="none" stroke-width="1" fill="none" fill-rule="evenodd">
        <g id="Detail_funding2/Desktop" transform="translate(-494.000000, -1942.000000)" fill-rule="nonzero" fill="#858585">
            <g id="Group-5" transform="translate(494.000000, 1942.000000)">
                <path d="M8.06896552,17.1761847 C8.73563218,17.8456865 9.33333333,18.4459295 9.74712644,18.8845687 C9.81609195,18.9538275 9.90804598,19 10,19 C10.091954,19 10.183908,18.9538275 10.2528736,18.8845687 C10.6666667,18.4459295 11.2413793,17.8456865 11.9310345,17.1761847 C15.1494253,13.9671932 20,9.09599028 20,5.63304982 C20,2.5164034 17.4712644,0 14.3908046,0 C12.6666667,0 11.0574713,0.784933171 10,2.12393682 C8.94252874,0.784933171 7.33333333,0 5.6091954,0 C2.50574713,0 0,2.53948967 0,5.63304982 C1.63343158e-15,9.11907655 4.85057471,13.9671932 8.06896552,17.1761847 Z M5.6091954,0.715674362 C7.26436782,0.715674362 8.8045977,1.54678007 9.70114943,2.93195626 C9.83908046,3.11664642 10.137931,3.11664642 10.2758621,2.93195626 C11.1954023,1.54678007 12.7356322,0.715674362 14.3678161,0.715674362 C17.0804598,0.715674362 19.2873563,2.93195626 19.2873563,5.65613609 C19.2873563,8.81895504 14.3678161,13.7594168 11.4022989,16.691373 C10.8505747,17.2454435 10.3678161,17.7302552 9.97701149,18.145808 C9.5862069,17.7302552 9.10344828,17.2454435 8.55172414,16.691373 C5.6091954,13.7594168 0.689655172,8.81895504 0.689655172,5.65613609 C0.689655172,2.93195626 2.89655172,0.715674362 5.6091954,0.715674362 Z" id="Shape"></path>
            </g>
        </g>
    </g>
</svg>