<?xml version="1.0" encoding="UTF-8" standalone="no"?>
<svg width="20px" height="20px" viewBox="0 0 20 20" version="1.1" xmlns="http://www.w3.org/2000/svg" xmlns:xlink="http://www.w3.org/1999/xlink">
    <!-- Generator: sketchtool 47.1 (45422) - http://www.bohemiancoding.com/sketch -->
    <title>94B521A3-F511-4868-A2E7-1AAA3A77F002</title>
    <desc>Created with sketchtool.</desc>
    <defs></defs>
    <g id="Page-1" stroke="none" stroke-width="1" fill="none" fill-rule="evenodd">
        <g id="Mobile/Main" transform="translate(-48.000000, -621.000000)" fill-rule="nonzero" fill="#000000">
            <g id="하단바" transform="translate(0.000000, 607.000000)">
                <g id="noun_Tag_1365574" transform="translate(48.000000, 14.000000)">
                    <path d="M19.895122,11.2756098 L8.72439024,0.102439024 L0.3,0.297560976 L0.104878049,8.72195122 L11.2756098,19.8926829 L19.895122,11.2756098 Z M0.775609756,0.787804878 L8.53658537,0.595121951 L19.2073171,11.2756098 L11.2756098,19.2073171 L0.595121951,8.53658537 L0.775609756,0.787804878 Z" id="Shape"></path>
                    <path d="M4.37560976,4.37560976 C3.51856725,5.23293216 3.51871853,6.6226762 4.37594764,7.47981202 C5.23317676,8.33694783 6.6229208,8.33694783 7.48014992,7.47981202 C8.33737904,6.6226762 8.33753031,5.23293216 7.4804878,4.37560976 C7.068802,3.96378949 6.51035551,3.73241997 5.92804878,3.73241997 C5.34574205,3.73241997 4.78729556,3.96378949 4.37560976,4.37560976 L4.37560976,4.37560976 Z M7.13414634,7.13414634 C6.46737957,7.80084508 5.38639786,7.80080831 4.71967645,7.13406422 C4.05295503,6.46732012 4.05295503,5.38633841 4.71967645,4.71959432 C5.38639786,4.05285023 6.46737957,4.05281346 7.13414634,4.7195122 C7.45436808,5.03970126 7.63426953,5.47399044 7.63426953,5.92682927 C7.63426953,6.37966809 7.45436808,6.81395727 7.13414634,7.13414634 Z" id="Shape"></path>
                </g>
            </g>
        </g>
    </g>
</svg>