<?xml version="1.0" standalone="no"?>
<!DOCTYPE svg PUBLIC "-//W3C//DTD SVG 20010904//EN"
 "http://www.w3.org/TR/2001/REC-SVG-20010904/DTD/svg10.dtd">
<svg version="1.0" xmlns="http://www.w3.org/2000/svg"
 width="230.000000pt" height="52.000000pt" viewBox="0 0 230.000000 52.000000"
 preserveAspectRatio="xMidYMid meet">

<g transform="translate(0.000000,52.000000) scale(0.100000,-0.100000)"
fill="#000000" stroke="none">
<path d="M0 260 l0 -260 1150 0 1150 0 0 260 0 260 -1150 0 -1150 0 0 -260z
m310 120 c0 -5 -5 -10 -10 -10 -7 0 -7 -6 -2 -17 11 -20 6 -41 -15 -64 -12
-15 -11 -20 11 -42 32 -32 32 -42 1 -72 -16 -17 -35 -25 -59 -25 -74 0 -90 67
-21 90 36 12 39 34 5 43 -28 7 -41 39 -27 68 10 18 23 25 57 30 25 3 48 7 53
7 4 1 7 -2 7 -8z m1095 -83 c19 -5 18 -5 -4 -12 l-24 -8 24 -18 c17 -13 20
-19 9 -19 -9 0 -21 5 -27 11 -8 8 -17 8 -31 0 -26 -14 -32 -14 -32 -1 0 6 7
10 15 10 8 0 15 5 15 10 0 6 -7 10 -15 10 -8 0 -15 5 -15 10 0 6 9 10 20 10
11 0 20 5 20 11 0 8 4 8 13 1 6 -5 21 -12 32 -15z m435 -27 c0 -21 -4 -42 -10
-45 -6 -4 -10 13 -10 45 0 32 4 49 10 45 6 -3 10 -24 10 -45z m-1470 25 c0 -8
8 -16 18 -16 16 -1 16 -2 0 -6 -10 -2 -18 -11 -18 -19 0 -8 -4 -14 -10 -14 -5
0 -10 7 -10 15 0 8 -8 16 -17 16 -17 1 -17 2 0 6 9 2 17 11 17 19 0 8 5 14 10
14 6 0 10 -7 10 -15z m290 -4 c0 -4 -10 -7 -22 -7 -19 1 -24 -5 -26 -31 -3
-28 0 -33 17 -33 12 0 21 5 21 10 0 6 -4 10 -10 10 -5 0 -10 5 -10 10 0 6 9
10 21 10 16 0 20 -5 17 -27 -2 -24 -8 -28 -33 -28 -52 0 -69 77 -21 95 22 8
46 3 46 -9z m312 -36 c2 -39 -1 -55 -9 -55 -9 0 -13 18 -13 55 0 71 17 71 22
0z m198 35 c0 -16 -7 -20 -35 -20 -19 0 -35 -4 -35 -10 0 -5 17 -10 38 -11 36
0 36 -1 12 -12 l-25 -11 28 -4 c48 -6 29 -22 -28 -22 -30 0 -55 5 -55 10 0 6
9 10 20 10 11 0 20 5 20 10 0 6 -7 10 -15 10 -8 0 -15 9 -15 20 0 16 7 20 38
22 l37 1 -37 4 c-53 6 -47 23 7 23 38 0 45 -3 45 -20z m400 0 c0 -15 -7 -20
-29 -20 -48 0 -47 -20 1 -21 24 -1 33 -4 21 -6 -28 -5 -30 -23 -3 -23 11 0 20
-4 20 -10 0 -5 -25 -10 -55 -10 -30 0 -55 5 -55 10 0 6 11 10 25 10 14 0 25 5
25 10 0 6 -9 10 -20 10 -13 0 -20 7 -20 20 0 16 7 20 38 21 33 2 34 2 7 6 -52
8 -53 23 -2 23 40 0 47 -3 47 -20z m130 -20 c0 -22 -4 -40 -10 -40 -5 0 -10
14 -10 30 0 28 -3 30 -36 30 -21 0 -33 4 -29 10 3 6 24 10 46 10 39 0 39 0 39
-40z m94 18 c16 -27 -14 -54 -43 -39 -24 13 -27 31 -9 49 16 16 38 12 52 -10z
m-524 0 l-25 -10 23 -9 c18 -7 23 -15 20 -36 -2 -22 -9 -29 -30 -31 -16 -2
-28 1 -28 7 0 6 9 11 20 11 11 0 20 7 20 15 0 8 -9 15 -20 15 -15 0 -20 7 -20
25 0 22 4 25 33 24 31 0 32 0 7 -11z m-516 -30 c8 -13 8 -23 0 -35 -16 -26
-51 -28 -64 -4 -25 47 36 83 64 39z m81 -18 c0 -38 -24 -52 -50 -30 -31 25 -9
73 30 68 16 -2 20 -11 20 -38z m95 34 c0 -16 -23 -44 -35 -44 -8 0 -15 -4 -15
-10 0 -5 12 -10 26 -10 40 0 28 -34 -14 -38 l-32 -3 1 48 c1 26 4 51 6 56 5 8
63 10 63 1z m120 -14 c8 -15 8 -21 -2 -24 -39 -13 -42 -14 -20 -15 12 -1 22
-6 22 -12 0 -6 -12 -9 -27 -7 -22 2 -29 9 -31 32 -5 44 38 64 58 26z m330 -30
c0 -5 9 -10 20 -10 11 0 20 -4 20 -10 0 -5 -25 -10 -55 -10 -30 0 -55 5 -55
10 0 6 11 10 25 10 14 0 25 5 25 10 0 6 5 10 10 10 6 0 10 -4 10 -10z m390
-10 c0 -5 13 -10 29 -10 17 0 33 -4 36 -10 4 -6 -12 -10 -39 -10 -39 0 -46 3
-46 20 0 11 5 20 10 20 6 0 10 -4 10 -10z m-55 -10 c-3 -5 -31 -10 -61 -10
-30 0 -54 5 -54 10 0 6 27 10 61 10 37 0 58 -4 54 -10z"/>
<path d="M213 354 c-9 -24 14 -64 37 -64 26 0 36 24 22 56 -13 27 -49 33 -59
8z"/>
<path d="M218 229 c-27 -15 -22 -48 8 -60 37 -13 79 13 64 40 -15 30 -43 37
-72 20z"/>
<path d="M1752 278 c6 -18 28 -21 28 -4 0 9 -7 16 -16 16 -9 0 -14 -5 -12 -12z"/>
<path d="M710 240 c0 -13 5 -20 13 -17 6 2 12 10 12 17 0 7 -6 15 -12 18 -8 2
-13 -5 -13 -18z"/>
<path d="M797 253 c-13 -12 -7 -33 8 -33 8 0 15 9 15 20 0 20 -11 26 -23 13z"/>
<path d="M880 250 c0 -5 5 -10 10 -10 6 0 10 5 10 10 0 6 -4 10 -10 10 -5 0
-10 -4 -10 -10z"/>
<path d="M880 190 c0 -5 7 -10 15 -10 8 0 15 5 15 10 0 6 -7 10 -15 10 -8 0
-15 -4 -15 -10z"/>
<path d="M1018 253 c7 -3 16 -2 19 1 4 3 -2 6 -13 5 -11 0 -14 -3 -6 -6z"/>
</g>
</svg>
