<?xml version="1.0" encoding="UTF-8" standalone="no"?>
<svg width="23px" height="20px" viewBox="0 0 23 20" version="1.1" xmlns="http://www.w3.org/2000/svg" xmlns:xlink="http://www.w3.org/1999/xlink">
    <!-- Generator: sketchtool 47.1 (45422) - http://www.bohemiancoding.com/sketch -->
    <title>FB1E1F9B-FFF7-4116-85BD-21A8266A842B</title>
    <desc>Created with sketchtool.</desc>
    <defs></defs>
    <g id="Page-1" stroke="none" stroke-width="1" fill="none" fill-rule="evenodd">
        <g id="Mobile/Detail-Copy" transform="translate(-292.000000, -627.000000)" fill="#FFFFFF">
            <g id="하단바" transform="translate(0.000000, 607.000000)">
                <path d="M314.35275,26.2396472 C314.352999,24.6444059 313.742023,23.0446941 312.52504,21.8272143 C311.307312,20.6102313 309.707352,19.9995045 308.112608,20.0000012 C306.51687,19.9995045 304.916909,20.6102313 303.700671,21.8279594 L303.176127,22.3520072 L302.651582,21.8274627 C301.434351,20.6097346 299.834391,19.9990078 298.239398,20.0000012 C296.643908,19.9990078 295.044196,20.6097346 293.827213,21.8274627 C292.609982,23.0451908 291.999504,24.6449026 292,26.2401439 C291.999504,27.8351368 292.609982,29.4346002 293.827213,30.65208 L293.87937,30.7042364 L297.707154,34.5320206 L303.162219,39.989072 L308.681858,34.4945177 L312.475864,30.7017528 L312.524792,30.65208 C313.74252,29.4348486 314.352999,27.8351368 314.35275,26.2396472 Z" id="heart-select"></path>
            </g>
        </g>
    </g>
</svg>