<?xml version="1.0" encoding="UTF-8" standalone="no"?>
<svg width="24px" height="20px" viewBox="0 0 24 20" version="1.1" xmlns="http://www.w3.org/2000/svg" xmlns:xlink="http://www.w3.org/1999/xlink">
    <!-- Generator: sketchtool 47.1 (45422) - http://www.bohemiancoding.com/sketch -->
    <title>1196685D-7228-43C7-98ED-821B646B3C2C</title>
    <desc>Created with sketchtool.</desc>
    <defs></defs>
    <g id="Page-1" stroke="none" stroke-width="1" fill="none" fill-rule="evenodd">
        <g id="Mobile/Main" transform="translate(-176.000000, -621.000000)" fill-rule="nonzero" fill="#000000">
            <g id="하단바" transform="translate(0.000000, 607.000000)">
                <g id="Group" transform="translate(176.000000, 14.000000)">
                    <path d="M23.1538462,7.94871795 L12.0512821,1.43589744 C11.8974359,1.33333333 11.6923077,1.33333333 11.5384615,1.43589744 L0.435897436,7.94871795 C0.179487179,8.1025641 0.102564103,8.41025641 0.256410256,8.64102564 C0.41025641,8.8974359 0.717948718,8.97435897 0.948717949,8.82051282 L11.7948718,2.46153846 L22.6410256,8.82051282 C22.7179487,8.87179487 22.8205128,8.8974359 22.8974359,8.8974359 C23.0769231,8.8974359 23.2564103,8.79487179 23.3333333,8.64102564 C23.4871795,8.38461538 23.4102564,8.07692308 23.1538462,7.94871795 Z" id="Shape"></path>
                    <path d="M4.1025641,6.12921184 C3.82051282,6.12921184 3.58974359,6.41486401 3.58974359,6.76399444 L3.58974359,19.3644291 C3.58974359,19.7135596 3.82051282,19.9992117 4.1025641,19.9992117 L9.56410256,19.9992117 C9.84615385,19.9992117 10.0769231,19.7135596 10.0769231,19.3644291 L10.0769231,15.8731248 C10.0769231,14.698777 10.8461538,13.7148639 11.8205128,13.7148639 C12.2820513,13.7148639 12.7179487,13.9370379 13.0512821,14.3496466 C13.3846154,14.7622552 13.5641026,15.3018205 13.5641026,15.8731248 L13.5641026,19.3644291 C13.5641026,19.7135596 13.7948718,19.9992117 14.0769231,19.9992117 L19.4871795,19.9992117 C19.7692308,19.9992117 20,19.7135596 20,19.3644291 L20,6.76399444 C20,6.41486401 19.7692308,6.12921184 19.4871795,6.12921184 C19.2051282,6.12921184 18.974359,6.41486401 18.974359,6.76399444 L18.974359,18.7296465 L14.5641026,18.7296465 L14.5641026,15.8731248 C14.5641026,14.95269 14.2820513,14.0957335 13.7435897,13.4609509 C13.2307692,12.8261683 12.5384615,12.4770379 11.7948718,12.4770379 C10.2820513,12.4770379 9.02564103,14.0005161 9.02564103,15.9048639 L9.02564103,18.7613856 L4.61538462,18.7613856 L4.61538462,6.76399444 C4.61538462,6.41486401 4.38461538,6.12921184 4.1025641,6.12921184 Z" id="Shape"></path>
                    <path d="M4.17948718,4.51282051 C4.46153846,4.51282051 4.69230769,4.28205128 4.69230769,4 L4.69230769,1.02564103 L6.05128205,1.02564103 L6.05128205,2.61538462 C6.05128205,2.8974359 6.28205128,3.12820513 6.56410256,3.12820513 C6.84615385,3.12820513 7.07692308,2.8974359 7.07692308,2.61538462 L7.07692308,0.512820513 C7.07692308,0.230769231 6.84615385,0 6.56410256,0 L4.17948718,0 C3.8974359,0 3.66666667,0.230769231 3.66666667,0.512820513 L3.66666667,4 C3.66666667,4.28205128 3.87179487,4.51282051 4.17948718,4.51282051 Z" id="Shape"></path>
                </g>
            </g>
        </g>
    </g>
</svg>