<?xml version="1.0" encoding="UTF-8" standalone="no"?>
<svg width="19px" height="20px" viewBox="0 0 19 20" version="1.1" xmlns="http://www.w3.org/2000/svg" xmlns:xlink="http://www.w3.org/1999/xlink">
    <!-- Generator: sketchtool 47.1 (45422) - http://www.bohemiancoding.com/sketch -->
    <title>9AE91B0F-2422-426F-A0C6-2658BCB37972</title>
    <desc>Created with sketchtool.</desc>
    <defs></defs>
    <g id="Page-1" stroke="none" stroke-width="1" fill="none" fill-rule="evenodd">
        <g id="Mobile/Detail-Copy" transform="translate(-331.000000, -627.000000)" fill-rule="nonzero" fill="#FFFFFF">
            <g id="하단바" transform="translate(0.000000, 607.000000)">
                <path d="M346.404627,33.5133675 C345.337024,33.5133675 344.390944,34.0345666 343.799532,34.8330183 L337.341705,30.9586821 C337.435323,30.6553245 337.486632,30.3339635 337.486632,30 C337.486632,29.6660365 337.436223,29.3446755 337.341705,29.0413179 L343.799532,25.1669817 C344.390944,25.9654334 345.337024,26.4866325 346.404627,26.4866325 C348.192367,26.4866325 349.647943,25.0319561 349.647943,23.2433162 C349.647943,21.4546764 348.193267,20 346.404627,20 C344.616887,20 343.161311,21.4546764 343.161311,23.2433162 C343.161311,23.5763795 343.21172,23.8986407 343.306238,24.2019984 L336.848411,28.0772347 C336.256999,27.2778828 335.310919,26.7566838 334.243316,26.7566838 C332.455577,26.7566838 331,28.2113602 331,30 C331,31.7886398 332.454676,33.2433162 334.243316,33.2433162 C335.310919,33.2433162 336.256999,32.7221172 336.848411,31.9236655 L343.306238,35.7980016 C343.21262,36.1013593 343.161311,36.4227203 343.161311,36.7566838 C343.161311,38.5453236 344.615987,40 346.404627,40 C348.192367,40 349.647943,38.5453236 349.647943,36.7566838 C349.647943,34.9680439 348.192367,33.5133675 346.404627,33.5133675 Z M346.404627,21.0820056 C347.596453,21.0820056 348.566838,22.0514898 348.566838,23.2442164 C348.566838,24.436943 347.597353,25.4064272 346.404627,25.4064272 C345.2119,25.4064272 344.242416,24.436943 344.242416,23.2442164 C344.242416,22.0514898 345.2128,21.0820056 346.404627,21.0820056 Z M334.243316,32.1622108 C333.05149,32.1622108 332.081105,31.1927266 332.081105,30 C332.081105,28.8072734 333.05059,27.8377892 334.243316,27.8377892 C335.435143,27.8377892 336.405527,28.8072734 336.405527,30 C336.405527,31.1927266 335.435143,32.1622108 334.243316,32.1622108 Z M346.404627,38.9179944 C345.2128,38.9179944 344.242416,37.9485102 344.242416,36.7557836 C344.242416,35.563057 345.2119,34.5935728 346.404627,34.5935728 C347.597353,34.5935728 348.566838,35.563057 348.566838,36.7557836 C348.566838,37.9485102 347.596453,38.9179944 346.404627,38.9179944 Z" id="Shape"></path>
            </g>
        </g>
    </g>
</svg>