<?xml version="1.0" encoding="UTF-8" standalone="no"?>
<svg width="20px" height="22px" viewBox="0 0 20 22" version="1.1" xmlns="http://www.w3.org/2000/svg" xmlns:xlink="http://www.w3.org/1999/xlink">
    <!-- Generator: sketchtool 47.1 (45422) - http://www.bohemiancoding.com/sketch -->
    <title>26BE23CA-9E52-4B12-8DB6-1406EC7B7588</title>
    <desc>Created with sketchtool.</desc>
    <defs></defs>
    <g id="Page-1" stroke="none" stroke-width="1" fill="none" fill-rule="evenodd">
        <g id="Mobile/Main" transform="translate(-307.000000, -619.000000)" fill-rule="nonzero" fill="#000000">
            <g id="하단바" transform="translate(0.000000, 607.000000)">
                <g id="noun_1414668_cc" transform="translate(307.000000, 12.000000)">
                    <g id="Group" transform="translate(0.000000, 0.175401)">
                        <path d="M0.32225875,0.06546925 C0.170096606,0.0837762159 0.0556619262,0.212977423 0.05586625,0.36623675 L0.05586625,21.28346 C0.0568290038,21.4491689 0.19092487,21.5832647 0.35663375,21.5842275 L19.4433663,21.5842275 C19.6090751,21.5832647 19.743171,21.4491689 19.7441337,21.28346 L19.7441337,0.36623675 C19.743171,0.20052787 19.6090751,0.0664320038 19.4433663,0.06546925 L0.35663375,0.06546925 C0.345184678,0.0648177473 0.333707822,0.0648177473 0.32225875,0.06546925 L0.32225875,0.06546925 Z M0.65742875,0.67561175 L19.1425988,0.67561175 L19.1425988,20.982665 L18.6957238,20.982665 C18.6963753,20.9712159 18.6963753,20.9597391 18.6957238,20.94829 C18.6957238,16.6290575 15.5680388,13.04974 11.4597588,12.311585 C13.0715888,11.700315 14.2269738,10.1815175 14.2269738,8.39282675 C14.2269738,6.06528175 12.2757113,4.18186175 9.89572375,4.18186175 C7.51568125,4.18186175 5.57305375,6.06528175 5.57305375,8.39282675 C5.57305375,10.1815175 6.72843875,11.700315 8.34024125,12.311585 C4.23143875,13.0493275 1.10430375,16.6287 1.10430375,20.94829 C1.10430375,20.959565 1.10430375,20.972215 1.10430375,20.982665 L0.65742875,20.982665 L0.65742875,0.67561175 Z M9.89572375,4.79203175 C11.9578388,4.79203175 13.6168038,6.40157925 13.6168038,8.39282675 C13.6168038,10.384055 11.9578388,12.00221 9.89572375,12.00221 C7.83355375,12.00221 6.18322375,10.384055 6.18322375,8.39282675 C6.18322375,6.40157925 7.83355375,4.79203175 9.89572375,4.79203175 Z M9.89572375,12.75846 C14.4211513,12.75846 18.0855538,16.4228625 18.0855538,20.94829 C18.0849022,20.9597391 18.0849022,20.9712159 18.0855537,20.982665 L1.71447375,20.982665 C1.71444625,20.97139 1.71447375,20.95874 1.71447375,20.94829 C1.71447375,16.4228625 5.37021375,12.75846 9.89572375,12.75846 L9.89572375,12.75846 Z" id="Shape"></path>
                    </g>
                </g>
            </g>
        </g>
    </g>
</svg>