<?xml version="1.0" standalone="no"?>
<!DOCTYPE svg PUBLIC "-//W3C//DTD SVG 20010904//EN"
 "http://www.w3.org/TR/2001/REC-SVG-20010904/DTD/svg10.dtd">
<svg version="1.0" xmlns="http://www.w3.org/2000/svg"
 width="1917.000000pt" height="1917.000000pt" viewBox="0 0 1917.000000 1917.000000"
 preserveAspectRatio="xMidYMid meet">
<metadata>
Created by potrace 1.11, written by Peter Selinger 2001-2013
</metadata>
<g transform="translate(0.000000,1917.000000) scale(0.100000,-0.100000)"
fill="#000000" stroke="none">
<path d="M9363 18255 c0 -168 -2 -307 -4 -309 -2 -2 -45 -7 -94 -11 -50 -3
-106 -8 -125 -10 -19 -2 -64 -7 -100 -10 -36 -4 -94 -11 -130 -16 -36 -6 -76
-12 -90 -14 -57 -8 -289 -57 -379 -81 -238 -63 -503 -166 -716 -279 -163 -86
-336 -193 -415 -257 -19 -16 -40 -32 -45 -36 -125 -88 -365 -318 -500 -477
-292 -347 -525 -768 -670 -1211 l-36 -111 -3012 -1 c-1657 0 -3020 -1 -3029
-1 -17 -1 -18 -18 -18 -221 l0 -220 848 0 847 0 0 -6962 0 -6963 -848 -3 -847
-2 0 -220 0 -220 9583 0 9584 0 0 220 0 220 -848 0 -849 0 0 6965 0 6965 848
0 849 0 0 220 c0 196 -1 220 -16 221 -9 0 -1372 1 -3030 2 l-3014 2 -57 165
c-221 647 -596 1189 -1106 1600 -213 172 -502 340 -783 457 -125 52 -371 133
-479 158 -9 2 -44 11 -77 19 -33 8 -73 17 -90 20 -16 3 -79 14 -140 25 -60 11
-130 22 -155 25 -83 11 -243 26 -324 32 -44 3 -83 7 -86 9 -3 2 -5 141 -5 309
l0 306 -221 0 -221 0 0 -305z m607 -769 c19 -2 61 -7 93 -10 87 -9 263 -36
342 -52 39 -9 81 -18 95 -20 173 -32 506 -152 714 -256 151 -76 420 -250 501
-325 11 -10 36 -31 55 -47 52 -42 156 -143 230 -223 261 -281 480 -646 615
-1029 l32 -91 -3063 0 c-1685 0 -3064 1 -3064 2 0 1 11 34 25 74 103 304 278
627 483 891 60 77 310 336 372 385 14 11 57 45 95 76 176 141 418 281 660 382
247 103 592 192 865 222 30 4 57 8 60 10 3 2 55 6 115 10 61 4 112 9 114 11 6
5 619 -4 661 -10z m7058 -9461 l0 -6965 -737 2 -736 3 -1 360 c-1 198 -2 363
-3 367 0 4 -99 7 -218 5 l-218 -2 -2 -335 c-1 -184 -2 -350 -2 -368 l-1 -32
-2652 2 -2653 3 0 2763 0 2762 -221 0 -221 0 -1 -2747 c0 -1512 -1 -2756 -1
-2765 -1 -17 -43 -18 -736 -18 l-735 0 0 53 c-1 28 -2 626 -3 1327 l-2 1275
-220 0 -220 0 0 -1325 0 -1325 -736 -3 -737 -2 0 3129 c0 2352 3 3131 11 3133
7 2 389 4 849 3 l836 0 1 221 0 221 -1917 -1 -1917 -1 0 -220 0 -220 835 -1
c459 -1 840 -2 846 -3 9 -1 12 -818 12 -3131 l0 -3130 -733 0 c-577 0 -734 3
-737 13 -2 6 -4 1251 -4 2765 l1 2752 -222 0 -222 0 0 -2722 c0 -1498 0 -2742
-1 -2765 l0 -43 -735 0 -735 0 -1 33 c-1 42 -1 13880 0 13890 1 4 3351 7 7445
7 l7444 0 0 -6965z"/>
<path d="M3611 11379 l0 -2139 2029 0 2029 0 -2 222 -2 223 -1805 0 -1805 0
-1 725 c0 399 2 730 4 737 3 8 435 11 1775 12 975 0 1787 0 1804 0 l33 1 -1
220 -1 220 -1806 2 -1807 3 0 735 0 735 1805 0 1805 0 2 222 2 221 -2029 0
-2029 0 0 -2139z"/>
<path d="M9366 13277 c-3 -12 -4 -660 -4 -1439 l1 -1418 221 0 221 0 0 1438 0
1437 -217 2 -218 3 -4 -23z"/>
<path d="M11283 13282 c-6 -12 -10 -2766 -4 -2849 1 -10 52 -13 221 -13 l220
0 0 1439 0 1439 -215 1 c-194 0 -215 -1 -222 -17z"/>
<path d="M13205 13292 c-7 -5 -11 -462 -10 -1439 l0 -1433 221 0 221 0 0 1439
0 1439 -211 1 c-116 0 -216 -3 -221 -7z"/>
<path d="M15113 11014 c1 -1516 -1 -2284 -8 -2285 -5 -1 -383 -3 -840 -4 -456
-1 -835 -3 -840 -4 -7 -1 -10 -79 -10 -218 l0 -218 825 -2 c454 -1 836 -2 850
-3 l25 0 -2 -2007 c-1 -1870 -4 -2200 -18 -2278 -3 -16 -8 -41 -10 -55 -3 -14
-8 -43 -11 -65 -19 -135 -95 -360 -179 -530 -149 -302 -351 -547 -622 -753
-264 -200 -641 -361 -928 -396 -27 -4 -61 -9 -75 -11 -103 -20 -346 -20 -525
1 -268 30 -612 153 -845 302 -190 121 -432 342 -557 508 -149 200 -295 486
-343 673 -30 116 -51 210 -56 241 -3 19 -7 40 -9 47 -8 26 -19 204 -19 318 0
420 119 805 358 1165 27 41 52 77 55 80 3 3 22 25 41 50 166 216 440 441 685
563 204 102 445 182 605 203 25 3 51 7 58 9 17 6 174 18 237 19 28 0 52 4 55
8 3 4 5 103 5 220 l0 213 -85 -1 c-169 -1 -313 -19 -504 -64 -619 -144 -1173
-531 -1534 -1072 -29 -42 -52 -80 -52 -84 0 -4 -6 -15 -14 -23 -20 -23 -106
-191 -153 -301 -79 -184 -141 -401 -174 -610 -24 -155 -34 -488 -19 -610 5
-41 12 -93 14 -115 3 -35 18 -121 30 -180 153 -724 614 -1345 1271 -1708 55
-31 134 -70 175 -87 41 -18 84 -36 95 -41 103 -44 288 -102 395 -123 235 -46
360 -59 545 -60 106 0 307 12 328 19 6 2 32 7 57 10 401 51 870 255 1203 523
411 330 705 765 857 1267 27 89 66 264 75 335 3 30 8 66 10 80 2 14 7 54 11
90 7 68 13 9216 6 9237 -3 10 -57 13 -222 12 l-218 -1 1 -2284z"/>
<path d="M9585 9680 c-1 -3 -3 -103 -3 -222 l0 -218 691 0 691 0 -764 -764
c-421 -421 -766 -769 -767 -773 -2 -5 66 -78 152 -162 l154 -154 880 880 881
881 880 -881 881 -881 157 157 157 157 -770 770 -770 770 691 0 691 0 -1 222
-1 223 -1913 0 c-1053 0 -1915 -2 -1917 -5z"/>
</g>
</svg>
