<?xml version="1.0" standalone="no"?>
<!DOCTYPE svg PUBLIC "-//W3C//DTD SVG 20010904//EN"
 "http://www.w3.org/TR/2001/REC-SVG-20010904/DTD/svg10.dtd">
<svg version="1.0" xmlns="http://www.w3.org/2000/svg"
 width="1200.000000pt" height="1200.000000pt" viewBox="0 0 1200.000000 1200.000000"
 preserveAspectRatio="xMidYMid meet">
<metadata>
Created by potrace 1.11, written by Peter Selinger 2001-2013
</metadata>
<g transform="translate(0.000000,1200.000000) scale(0.100000,-0.100000)"
fill="#000000" stroke="none">
<path d="M5447 7305 c-58 -22 -94 -52 -124 -103 -64 -109 -14 -258 102 -307
85 -35 187 -14 251 52 55 59 73 158 41 236 -42 100 -172 159 -270 122z"/>
<path d="M9970 7311 c-105 -32 -170 -119 -164 -221 2 -49 35 -122 66 -147 33
-28 93 -54 124 -55 19 -1 34 -4 34 -8 0 -22 -85 -83 -132 -95 -47 -12 -31 -23
20 -14 144 27 229 86 282 193 35 71 45 152 25 210 -34 98 -160 165 -255 137z"/>
<path d="M1740 6998 l0 -293 31 89 c16 49 38 101 47 115 10 14 24 40 32 56 28
56 170 188 245 227 99 51 188 78 260 78 l62 0 -1 -951 c-1 -929 -1 -951 -20
-965 -24 -17 -43 -16 239 -16 282 0 261 -1 243 20 -12 15 -14 144 -14 962 l1
945 85 -2 c69 -1 98 -7 157 -32 208 -86 320 -215 415 -474 13 -35 14 -10 14
245 l-1 283 -898 3 -897 2 0 -292z"/>
<path d="M3960 6707 c-3 -3 -21 -8 -40 -11 -197 -31 -393 -196 -481 -405 -54
-128 -68 -277 -39 -403 29 -124 132 -298 221 -370 259 -212 622 -216 879 -10
341 275 328 804 -27 1071 -62 47 -177 101 -249 116 -38 9 -258 18 -264 12z
m179 -89 c75 -52 142 -227 170 -436 9 -70 7 -306 -3 -367 -14 -82 -18 -102
-43 -183 -46 -155 -118 -242 -198 -242 -27 0 -78 30 -103 60 -41 50 -94 165
-106 232 -3 13 -5 23 -6 23 -2 0 -5 19 -17 100 -10 74 -11 371 -1 440 11 76
64 234 98 292 30 53 79 98 115 105 25 5 68 -6 94 -24z"/>
<path d="M5296 6635 c21 -14 21 -14 19 -817 -1 -539 -5 -819 -13 -853 -15 -68
-36 -117 -69 -155 l-28 -33 41 6 c85 14 226 70 282 112 92 69 173 176 185 245
3 14 8 38 12 54 6 22 11 1340 6 1439 -1 16 -19 17 -228 17 -202 0 -225 -2
-207 -15z"/>
<path d="M6013 6633 c13 -16 15 -78 15 -513 0 -477 1 -497 21 -554 34 -97 76
-147 159 -190 51 -27 69 -30 172 -30 74 -1 111 4 167 23 101 33 116 45 57 49
-70 4 -113 31 -144 92 -11 20 -14 144 -14 569 -1 530 -1 544 19 557 17 12 -14
14 -224 14 -232 0 -243 -1 -228 -17z"/>
<path d="M6775 6634 c19 -14 20 -30 21 -647 1 -347 2 -636 3 -642 1 -11 437
-12 448 -1 3 3 -1 6 -10 6 -9 0 -18 3 -18 8 -1 4 -2 290 -3 636 -1 615 -1 629
19 642 17 12 -15 14 -230 14 -224 -1 -248 -2 -230 -16z"/>
<path d="M7535 6636 c20 -13 20 -27 19 -640 0 -560 -2 -627 -16 -643 -16 -17
-6 -18 218 -17 217 1 269 5 233 19 -12 4 -14 107 -13 650 l1 645 -231 0 c-199
0 -228 -2 -211 -14z"/>
<path d="M8337 6644 c-1 -2 -18 -6 -37 -9 -39 -7 -98 -26 -150 -49 l-35 -15
30 -2 c17 -1 33 -1 38 0 4 1 22 -5 41 -13 38 -16 73 -50 89 -86 7 -17 11 -206
12 -558 1 -489 0 -535 -15 -555 l-18 -22 232 2 c127 1 235 2 240 2 5 1 3 8 -5
17 -10 12 -13 122 -14 517 -1 500 -1 502 -24 562 -31 80 -106 154 -186 184
-48 18 -187 36 -198 25z"/>
<path d="M9397 6628 c-268 -71 -410 -261 -350 -471 42 -150 200 -257 418 -283
28 -4 53 -8 58 -11 4 -2 7 1 7 6 0 6 -4 11 -10 11 -5 0 -23 14 -39 31 -45 47
-55 107 -56 334 0 172 3 208 19 255 24 68 53 113 86 134 25 16 25 16 -21 14
-25 -2 -76 -11 -112 -20z"/>
<path d="M9600 6627 c72 -64 92 -135 95 -337 4 -266 -17 -367 -85 -406 -23
-14 -20 -15 40 -9 264 25 432 170 434 375 1 66 -3 84 -32 143 -39 78 -103 139
-197 185 -68 34 -200 72 -250 72 l-30 -1 25 -22z"/>
<path d="M9112 5827 c-70 -35 -134 -92 -158 -139 -25 -47 -28 -119 -10 -176
18 -54 82 -134 129 -163 l29 -17 -43 -27 c-183 -116 -202 -309 -43 -454 173
-158 523 -211 834 -126 250 69 405 248 402 465 -1 91 -4 107 -35 173 -41 88
-113 151 -220 191 -65 25 -118 30 -412 41 -237 10 -276 12 -320 20 -99 17
-156 62 -149 118 3 27 33 74 70 111 25 26 -4 19 -74 -17z m95 -538 c15 -6 35
-12 43 -14 89 -16 128 -19 410 -30 274 -11 307 -20 346 -93 63 -119 -23 -308
-174 -382 -99 -48 -159 -61 -282 -61 -179 1 -358 101 -426 238 -24 50 -28 70
-28 143 1 84 13 132 50 188 17 25 22 26 61 11z"/>
<path d="M4916 5248 c-55 -12 -99 -48 -125 -102 -27 -58 -27 -100 0 -172 25
-65 90 -137 147 -161 64 -28 141 -43 149 -30 3 7 3 9 -2 5 -11 -10 -95 35
-124 66 -23 24 -23 26 -5 27 10 1 22 1 27 0 16 -3 75 28 96 50 130 138 17 355
-163 317z"/>
</g>
</svg>
